/* XPM */
static char * fortuner2_xpm[] = {
"32 32 327 2",
"  	c None",
". 	c #42453B",
"+ 	c #44473C",
"@ 	c #46493D",
"# 	c #51523F",
"$ 	c #D3C463",
"% 	c #F3E16D",
"& 	c #DCCC67",
"* 	c #B0A65B",
"= 	c #7B774B",
"- 	c #4E4F40",
"; 	c #44473D",
"> 	c #494B3D",
", 	c #EBDA6A",
"' 	c #F4E16D",
") 	c #F5E26E",
"! 	c #F5E36F",
"~ 	c #F6E370",
"{ 	c #F6E371",
"] 	c #F6E471",
"^ 	c #E9D86D",
"/ 	c #B3A85D",
"( 	c #706F4A",
"_ 	c #484B3E",
": 	c #5C5C43",
"< 	c #F5E370",
"[ 	c #F7E472",
"} 	c #F8E573",
"| 	c #F8E674",
"1 	c #F8E574",
"2 	c #F7E473",
"3 	c #CEC166",
"4 	c #868250",
"5 	c #4B4F3F",
"6 	c #44483D",
"7 	c #B8AE5C",
"8 	c #F5E26F",
"9 	c #F7E471",
"0 	c #F9E675",
"a 	c #FAE776",
"b 	c #D5C767",
"c 	c #837E4E",
"d 	c #474A3D",
"e 	c #42463C",
"f 	c #A29A57",
"g 	c #F9E775",
"h 	c #FAE777",
"i 	c #FBE878",
"j 	c #FCE979",
"k 	c #FBE877",
"l 	c #F2E070",
"m 	c #AFA55B",
"n 	c #555742",
"o 	c #3E4339",
"p 	c #373C39",
"q 	c #3D4139",
"r 	c #41453B",
"s 	c #5E5E43",
"t 	c #716E49",
"u 	c #807C4E",
"v 	c #9E9758",
"w 	c #CABE66",
"x 	c #F7E474",
"y 	c #FAE775",
"z 	c #F9E674",
"A 	c #E3D36D",
"B 	c #5E5D43",
"C 	c #908A4C",
"D 	c #D8C95B",
"E 	c #E9D75E",
"F 	c #E8D65E",
"G 	c #474A3C",
"H 	c #44483C",
"I 	c #BAAE5B",
"J 	c #E5D468",
"K 	c #D2C362",
"L 	c #B3A859",
"M 	c #86814D",
"N 	c #5F5E44",
"O 	c #79754C",
"P 	c #B7AC60",
"Q 	c #F2E172",
"R 	c #6B6A46",
"S 	c #C7B957",
"T 	c #D1C259",
"U 	c #43473A",
"V 	c #626146",
"W 	c #F3E06E",
"X 	c #F4E26E",
"Y 	c #F2E06B",
"Z 	c #F1DF6A",
"` 	c #F0DE68",
" .	c #D8C761",
"..	c #9B9350",
"+.	c #616043",
"@.	c #837F4E",
"#.	c #D0C265",
"$.	c #E6D55E",
"%.	c #E7D55D",
"&.	c #55563F",
"*.	c #40453B",
"=.	c #7A774D",
"-.	c #F3E171",
";.	c #F4E16E",
">.	c #F3E06C",
",.	c #F2DF6A",
"'.	c #EFDD66",
").	c #EEDB65",
"!.	c #C9BB5A",
"~.	c #807C4A",
"{.	c #40433A",
"].	c #666543",
"^.	c #D5C65A",
"/.	c #7B7746",
"(.	c #3E4238",
"_.	c #46483D",
":.	c #BDB160",
"<.	c #F3E16C",
"[.	c #F0DE69",
"}.	c #EFDD67",
"|.	c #ECDA63",
"1.	c #E6D45F",
"2.	c #AAA051",
"3.	c #666542",
"4.	c #6F6D44",
"5.	c #40433B",
"6.	c #44493C",
"7.	c #6C6B47",
"8.	c #E7D66C",
"9.	c #EEDB64",
"0.	c #ECDA62",
"a.	c #E8D75F",
"b.	c #727045",
"c.	c #F7E572",
"d.	c #EFDC66",
"e.	c #DFD061",
"f.	c #59593F",
"g.	c #45473F",
"h.	c #5F5F45",
"i.	c #E1D064",
"j.	c #F1DF6B",
"k.	c #C7B85C",
"l.	c #45493C",
"m.	c #726F4E",
"n.	c #ECDA69",
"o.	c #EFDD69",
"p.	c #F7E573",
"q.	c #F1DF6C",
"r.	c #948C52",
"s.	c #41433C",
"t.	c #646450",
"u.	c #E7D86E",
"v.	c #EDDD6E",
"w.	c #EEDD6B",
"x.	c #EFDD68",
"y.	c #DACB67",
"z.	c #555640",
"A.	c #585B51",
"B.	c #D3C770",
"C.	c #ECDD77",
"D.	c #EEDD74",
"E.	c #EDDD6D",
"F.	c #EDDC68",
"G.	c #A09858",
"H.	c #41463C",
"I.	c #848160",
"J.	c #EEDF80",
"K.	c #EEE083",
"L.	c #EDDF7C",
"M.	c #ECDC71",
"N.	c #EDDC69",
"O.	c #EDDB64",
"P.	c #EEDC66",
"Q.	c #F0DD68",
"R.	c #F1DF69",
"S.	c #C1B461",
"T.	c #4B4D3E",
"U.	c #5B5E54",
"V.	c #C7BE74",
"W.	c #EFE28B",
"X.	c #F0E390",
"Y.	c #EEE186",
"Z.	c #ECDD75",
"`.	c #EBDA69",
" +	c #ECD962",
".+	c #EEDC65",
"++	c #B1A75A",
"@+	c #43463D",
"#+	c #42453C",
"$+	c #5C5D54",
"%+	c #ECDF82",
"&+	c #F0E494",
"*+	c #F1E699",
"=+	c #F0E38E",
"-+	c #EDDE7B",
";+	c #EAD85F",
">+	c #EBD961",
",+	c #F0DD67",
"'+	c #F1DE69",
")+	c #C1B45E",
"!+	c #656546",
"~+	c #F0DE6E",
"{+	c #CBBF63",
"]+	c #837F4D",
"^+	c #4A4C3D",
"/+	c #43473C",
"(+	c #636456",
"_+	c #EFE187",
":+	c #F2E79F",
"<+	c #F0E493",
"[+	c #EDDF7E",
"}+	c #EBDA6B",
"|+	c #EAD965",
"1+	c #5B5B43",
"2+	c #E9D96F",
"3+	c #EFDD6A",
"4+	c #85804D",
"5+	c #323737",
"6+	c #3F423B",
"7+	c #6A6B59",
"8+	c #F1E69A",
"9+	c #F2E7A0",
"0+	c #EAD860",
"a+	c #999250",
"b+	c #A79E5C",
"c+	c #B0A55A",
"d+	c #545640",
"e+	c #87814A",
"f+	c #B3A852",
"g+	c #ADA351",
"h+	c #787546",
"i+	c #43473B",
"j+	c #666856",
"k+	c #EEE084",
"l+	c #F1E595",
"m+	c #F0E38F",
"n+	c #E9D75F",
"o+	c #5B5C42",
"p+	c #F8E677",
"q+	c #B7AC5F",
"r+	c #747248",
"s+	c #E7D562",
"t+	c #8F884B",
"u+	c #5C5D4F",
"v+	c #EFE28C",
"w+	c #F0E491",
"x+	c #EAD967",
"y+	c #C5B856",
"z+	c #50513F",
"A+	c #7C794E",
"B+	c #666547",
"C+	c #E8D667",
"D+	c #D0C158",
"E+	c #46493B",
"F+	c #54574B",
"G+	c #EADB75",
"H+	c #EEE081",
"I+	c #EEE185",
"J+	c #EDDF7D",
"K+	c #ECDC70",
"L+	c #9A924D",
"M+	c #B6AB5F",
"N+	c #D6C768",
"O+	c #878351",
"P+	c #5D5E44",
"Q+	c #4A4C3F",
"R+	c #9B9354",
"S+	c #BBB055",
"T+	c #44463C",
"U+	c #4F524A",
"V+	c #C0B465",
"W+	c #ECDD76",
"X+	c #EDDE79",
"Y+	c #ECDC73",
"Z+	c #EAD862",
"`+	c #87814B",
" @	c #CEC069",
".@	c #F1DF70",
"+@	c #B3A85C",
"@@	c #646345",
"#@	c #5F5F43",
"$@	c #C6B85E",
"%@	c #56583F",
"&@	c #505346",
"*@	c #8B8658",
"=@	c #CEC267",
"-@	c #E9D861",
";@	c #7B7748",
">@	c #DCCD6D",
",@	c #DACB65",
"'@	c #D5C662",
")@	c #AAA053",
"!@	c #41473B",
"~@	c #595B4B",
"{@	c #636248",
"]@	c #B4A956",
"^@	c #E8D65F",
"/@	c #8A854B",
"(@	c #C5B963",
"_@	c #DECE60",
":@	c #45483C",
"<@	c #50523E",
"[@	c #A09950",
"}@	c #E5D35D",
"|@	c #BBAE54",
"1@	c #87824F",
"2@	c #F2DF6B",
"3@	c #E4D362",
"4@	c #8B854A",
"5@	c #DAC95A",
"6@	c #605F42",
"7@	c #BDB257",
"8@	c #4B4C3D",
"9@	c #47493B",
"0@	c #5E5E40",
"a@	c #A99F51",
"b@	c #BBB054",
"c@	c #58583F",
"d@	c #C2B65A",
"e@	c #EDDB63",
"f@	c #CDBF5C",
"g@	c #948C4E",
"h@	c #4D513E",
"i@	c #44473A",
"j@	c #45473B",
"k@	c #343937",
"l@	c #43463A",
"                        . + @                                   ",
"                      # $ % & * = - ;                           ",
"                    > , ' ) ! ~ { ] ^ / ( @ _                   ",
"                    : ' ) < { [ } } | | 1 2 3 4 5 _             ",
"                    6 7 8 ~ 9 } | 0 a a a a 0 } [ b c d e       ",
"                      . f ~ 9 } | g h i j k a 0 } l m n o p q   ",
"                        r s t u v w x a a a y z A B C D E F G   ",
"                        H I J K L M N O P Q 1 } R S E E E T U   ",
"                        V W X % Y Z `  ...+.@.#.s $.E E %.&.    ",
"                    *.=.-.9 ~ 8 ;.>.,.` '.).!.~.{.].^.E /.(.    ",
"                  _.:.} 1 1 } [ ~ X <.,.[.}.).|.1.2.3.4.5.      ",
"              6.7.8.[ 1 0 a g | [ ~ ) <.,.` '.9.0.a.b..         ",
"            > 7 ' 8 ] } 0 k i a z c.~ X >.,.` d.e.f.            ",
"        g.h.i.j.>.;.< [ | a i i a | [ < ;.>.Z k.l.              ",
"        m.n.o.[.Z >.X ~ [ 1 0 a a z p.{ 8 q.r.s.                ",
"      t.u.v.w.x.` Z >.X < 9 } | z 1 c.] y.z.                    ",
"    A.B.C.D.E.F.d.` Z >.' 8 ~ 9 [ [ { G.H.                      ",
"    I.J.K.L.M.N.O.P.Q.R.Y <.X 8 < S.T.                          ",
"  U.V.W.X.Y.Z.`. +O..+}.` Z Y <.++@+#+                          ",
"  $+%+&+*+=+-+`.;+>+|.).d.,+'+)+!+~+{+]+^+/+                    ",
"  (+_+*+:+<+[+}+E ;+>+0.O..+|+1+2+[ ! ' 3+4+5+6+                ",
"  7+_+8+9+<+[+}+E E E 0+>+|.a+b+0 } { c+d+e+f+g+h+i+            ",
"  j+k+l+8+m+-+`.E E E E n+0+o+p+a 1 q+r+s+|.>+;+E t+            ",
"  u+[+v+w+_+C.x+E E E E E y+z+A+w | B+C+,+P.O.0.0+D+E+          ",
"  F+G+H+I+J+K+|+E E E E E L+M+N+O+P+Q+R+Z ` d.O. +S+T+          ",
"  U+V+W+X+Y+}+Z+E E E E E `+ @a | .@+@@@#@$@}..+|.%@            ",
"    &@*@=@}+|+-@E E E E E ;@>@a | [ ~ ;.,@'@}..+)@!@            ",
"        ~@{@]@^@E E E E E /@(@[ ] ! X >.Z ` d._@E+              ",
"            :@<@[@}@E E E |@1@' % >.2@'+,+P.3@&.                ",
"                  l.4@5@E F 6@'@` Q.}.P.O.7@8@                  ",
"                      9@0@a@b@c@d@e@f@g@h@i@                    ",
"                            j@r k@l@j@                          "};
