/* XPM */
static char *fortuner2[] = {
/* columns rows colors chars-per-pixel */
"32 32 115 2 ",
"   c #2D1833383601",
".  c #347239A73776",
"X  c #35333A60380F",
"o  c #39B33E473942",
"O  c #3DAF41B93A72",
"+  c #424F45C63B23",
"@  c #4676495B3BFF",
"#  c #499A4C333D4A",
"$  c #54AF55D23EC7",
"%  c #594E59CF3F6D",
"&  c #53C15518411C",
"*  c #578358634166",
"=  c #5C6E5CAA42E9",
"-  c #514754974B4A",
";  c #521655FC50B1",
":  c #63D7631E43F3",
">  c #68AE672C42CC",
",  c #6D4A6B61461B",
"<  c #6CF96B3F484A",
"1  c #715E6ED04523",
"2  c #71D76FA74A02",
"3  c #744271424539",
"4  c #79E6766047B5",
"5  c #7D0D78EA473A",
"6  c #7652736249DF",
"7  c #7A3C76DC4B1D",
"8  c #7C0578704C7B",
"9  c #65A06656503C",
"0  c #674E68D356FF",
"q  c #65FC67FA5B43",
"w  c #7D397B6B57A1",
"e  c #79B379315E11",
"r  c #646E67E06314",
"t  c #7340746D6372",
"y  c #81167CCF4D94",
"u  c #867D81474BBB",
"i  c #899D83E04ABF",
"p  c #8F94893D4D97",
"a  c #93F98CF54CBE",
"s  c #97B790734F0B",
"d  c #9D6795254E35",
"f  c #867381995088",
"g  c #89DB84B851A4",
"h  c #8ED888FD51F8",
"j  c #947F8DDE53DE",
"k  c #9A43929F51FB",
"l  c #97FB92975D2C",
"z  c #A30899F64F29",
"x  c #A2C99A4955D0",
"c  c #A8C59F815746",
"v  c #A5759CC55934",
"b  c #A82B9F295B09",
"n  c #AC50A2695432",
"m  c #AD19A37C5C32",
"M  c #B1DBA7075376",
"N  c #B541AA015476",
"B  c #BB4BAF565772",
"V  c #B14FA70D5BF6",
"C  c #B465A9CE5C82",
"Z  c #B9F0AE5259E1",
"A  c #843582E96505",
"S  c #952E91BA67EC",
"D  c #BA3AAF9B6320",
"F  c #BFB6B3DC631D",
"G  c #C2CBB5C65617",
"H  c #C780B9DE5704",
"J  c #CAA1BC7E577A",
"K  c #C233B5A55B8C",
"L  c #C693B9825E37",
"P  c #CD70BF1A5844",
"I  c #C2A7B6C662EB",
"U  c #C6EDBA236345",
"Y  c #CAE9BD95638E",
"T  c #CBDDBFAE6C1E",
"R  c #C295BA347843",
"E  c #CE7DC0485CC1",
"W  c #D4ADC57B5C61",
"Q  c #DCEECC9B5CB5",
"!  c #E06CCFA05D34",
"~  c #E675D4D45DA1",
"^  c #E9E4D7D55E81",
"/  c #EBF5D9A25EE9",
"(  c #CEF0C0EB61C6",
")  c #D409C55B628A",
"_  c #DBBFCC296633",
"`  c #D557C6DA6865",
"'  c #DB36CBF76A69",
"]  c #E04FD08E6DCE",
"[  c #D8D5CC8775D6",
"{  c #E420D34D6396",
"}  c #E9F1D83E62B0",
"|  c #ED5FDB4A6428",
" . c #E4A5D45E6C13",
".. c #E8AFD7B26CA7",
"X. c #ED6FDC176C14",
"o. c #F16FDED066B8",
"O. c #F1DBDF6869A8",
"+. c #ED4EDD7873CA",
"@. c #EE53DF3D7A60",
"#. c #F4FEE24B6D34",
"$. c #F710E4547170",
"%. c #F9DEE6ED745A",
"&. c #FCC4E98E76C9",
"*. c #F0D2E1267900",
"=. c #FC41E9397851",
"-. c #DD58D242843D",
";. c #E675D97880A2",
":. c #EE3DE01D8131",
">. c #EAACDE308986",
",. c #EF53E16B8401",
"<. c #EF67E2728B3C",
"1. c #F1ABE4A48D55",
"2. c #F1A9E59694E6",
"3. c #F210E6A69994",
"4. c None",
/* pixels */
"4.4.4.4.4.4.4.4.4.4.4.4.# = # X 4.4.4.4.4.4.4.4.4.4.4.4.4.4.4.4.",
"4.4.4.4.4.4.4.4.4.4.4.< L  .( C h < # 4.4.4.4.4.4.4.4.4.4.4.4.4.",
"4.4.4.4.4.4.4.4.4.4.: _ #.$.$.%.$.X.` C f = + 4.4.4.4.4.4.4.4.4.",
"4.4.4.4.4.4.4.4.4.4.2 O.$.#.$.$.%.%.&.&.%...I j 9 + 4.4.4.4.4.4.",
"4.4.4.4.4.4.4.4.4.4.+ V $.$.$.%.%.%.=.=.%.=.%.%...U j $   4.4.4.",
"4.4.4.4.4.4.4.4.4.4.4.# b ..$.%.&.&.=.=.=.=.=.%.&...c , $ $ 4.4.",
"4.4.4.4.4.4.4.4.4.4.4.4.o < f h x F ] %.=.=.%.%.` 7 s P Q P $ 4.",
"4.4.4.4.4.4.4.4.4.4.4.4.X x ) K n h 7 y m ' %.$.y M / / / G # 4.",
"4.4.4.4.4.4.4.4.4.4.4.4.6 ..$.#.#.O.{ L d 7 g m 1 W / / ! 3 4.4.",
"4.4.4.4.4.4.4.4.4.4.O g  .%.$.#.#.#.#.#.o.{ B i $ 1 G ! i 4.4.4.",
"4.4.4.4.4.4.4.4.4.& m $.%.%.%.$.$.#.O.O.O.o.o.} W d 3 > O 4.4.4.",
"4.4.4.4.4.4.4.X 7 ` %.%.%.%.%.%.$.%.#.#.O.O.o.o.| ! 5   4.4.4.4.",
"4.4.4.4.4.4.* n ..$.$.$.%.=.=.=.%.%.#.#.#.o.o.o.W 3 4.4.4.4.4.4.",
"4.4.4.4.4.7 W #.#.#.$.$.%.%.=.=.%.%.$.$.#.#.O.Z = 4.4.4.4.4.4.4.",
"4.4.4.4.g  .O.X.O.#.#.$.$.%.%.%.%.%.%.$.%...k @ 4.4.4.4.4.4.4.4.",
"4.4.4.w  .X.X.o.o.O.#.#.$.$.%.%.%.$.%.%.Y 2 4.4.4.4.4.4.4.4.4.4.",
"4.4.q T +.+.X.| O.O.O.O.#.#.$.$.%.%...x & 4.4.4.4.4.4.4.4.4.4.4.",
"4.4.S :.,.@.X.X.| | O.O.O.#.#.$.#.C : 4.4.4.4.4.4.4.4.4.4.4.4.4.",
"4.r R 1.1.@.+.| | | | O.O.O.#.O.b & o 4.4.4.4.4.4.4.4.4.4.4.4.4.",
"4.t -.2.2.<.+.| } | | | o.O.O.V 8 _ I g = O 4.4.4.4.4.4.4.4.4.4.",
"4.A >.3.3.<.+...^ ^ | | | o.W 7 ] %.%.#.P 6 o X 4.4.4.4.4.4.4.4.",
"4.A <.3.3.<.+.} ^ ^ ^ ^ } | s b &.$.#.m 7 p M N u + 4.4.4.4.4.4.",
"4.A >.3.2.<.+.| ^ ^ ^ ^ ^ Q 1  .&.%.m y W | | / ^ p 4.4.4.4.4.4.",
"4.e ;.<.<.:.+.} ^ ^ ^ ^ / N = g D ..y ( #.| | | / G + 4.4.4.4.4.",
"4.0 [ <.,.+.X.} ^ ^ ^ ^ / s c T j 7 $ j } #.| | | N O 4.4.4.4.4.",
"4.; D *.+.+...} ^ ^ ^ ^ ^ i T &.%.] n 1 6 L o.o.! 1 4.4.4.4.4.4.",
"4.4.9 l I { o./ ^ ^ ^ ^ ^ i Y &.%.%.$.X.Y ) o.o.z X 4.4.4.4.4.4.",
"4.4.4.4.- 2 c Q / / ^ / ^ p Z %.$.$.#.#.#.o.o.E $ 4.4.4.4.4.4.4.",
"4.4.4.4.4.4.O = d W / / / M h #.O.O.O.O.O.o.W , 4.4.4.4.4.4.4.4.",
"4.4.4.4.4.4.4.4.4.% p H ~ Q 7 L #.O.O.O.{ M : 4.4.4.4.4.4.4.4.4.",
"4.4.4.4.4.4.4.4.4.4.4.# 3 z s > N Q K s > o 4.4.4.4.4.4.4.4.4.4.",
"4.4.4.4.4.4.4.4.4.4.4.4.4.4.@ o o $ + 4.4.4.4.4.4.4.4.4.4.4.4.4."
};
